<svg width="214" height="66" viewBox="0 0 214 66" fill="none" xmlns="http://www.w3.org/2000/svg">
<rect x="1.33317" y="1.03337" width="212" height="63.9391" rx="19.3333" stroke="#858585" stroke-width="1.33333"/>
<g clip-path="url(#clip0_4515_4869)">
<path d="M54.675 33.6872C55.0921 33.1006 55.4233 32.6299 55.6678 32.2748C57.4292 29.7272 58.1926 28.0998 57.9587 27.3903L57.8669 27.2241C57.8059 27.1243 57.6477 27.0327 57.3934 26.9497C57.1388 26.8668 56.813 26.8536 56.4161 26.9083L52.0177 26.942C51.9159 26.931 51.814 26.9336 51.7122 26.9497C51.6103 26.9666 51.5443 26.9835 51.5135 26.9996C51.4828 27.0165 51.4575 27.03 51.4373 27.0411L51.3763 27.091C51.3254 27.124 51.2695 27.1823 51.2084 27.2656C51.1473 27.3489 51.096 27.4454 51.0556 27.5565C50.5771 28.8967 50.0324 30.1429 49.4215 31.2949C49.0447 31.9817 48.6984 32.5775 48.3831 33.0808C48.0674 33.5852 47.8027 33.9562 47.5889 34.1938C47.3751 34.4319 47.1815 34.6234 47.0086 34.7669C46.8352 34.9114 46.703 34.972 46.6117 34.95C46.5199 34.928 46.4332 34.906 46.352 34.8832C46.2094 34.7838 46.0946 34.6484 46.0083 34.4764C45.9217 34.3051 45.8634 34.0889 45.8326 33.8285C45.8023 33.5684 45.7841 33.3439 45.7793 33.1553C45.7739 32.9671 45.7766 32.7015 45.7871 32.3577C45.7972 32.0143 45.8023 31.7821 45.8023 31.66C45.8023 31.2395 45.81 30.7824 45.8253 30.2894C45.8404 29.7967 45.8533 29.406 45.8634 29.1179C45.8735 28.8303 45.8785 28.5254 45.8785 28.2041C45.8785 27.8834 45.8607 27.631 45.8248 27.448C45.7891 27.2656 45.7355 27.0884 45.6647 26.9164C45.5932 26.7451 45.4889 26.6119 45.3513 26.518C45.2138 26.4237 45.0434 26.3493 44.8398 26.2934C44.2999 26.1602 43.6126 26.0891 42.778 26.0774C40.8841 26.0561 39.6674 26.1889 39.1278 26.4765C38.914 26.5987 38.7204 26.7645 38.5475 26.9751C38.364 27.2191 38.3387 27.3522 38.4712 27.3735C39.0823 27.4733 39.5147 27.7117 39.7693 28.0881L39.861 28.2873C39.9321 28.4319 40.0033 28.6865 40.0748 29.0519C40.146 29.4173 40.1918 29.8216 40.2124 30.2647C40.2633 31.0733 40.2633 31.7652 40.2124 32.3416C40.1615 32.9179 40.1133 33.3662 40.0674 33.6869C40.0215 34.0082 39.9527 34.2683 39.8613 34.4675C39.7696 34.6675 39.7086 34.7893 39.6779 34.8336C39.6472 34.8776 39.6219 34.9055 39.6017 34.9166C39.4692 34.9716 39.3319 34.9995 39.1893 34.9995C39.0466 34.9995 38.8736 34.9217 38.6699 34.7665C38.4662 34.6121 38.2548 34.3985 38.0363 34.1271C37.8171 33.856 37.5705 33.4763 37.2953 32.9887C37.0205 32.5019 36.7352 31.9255 36.4401 31.2611L36.1959 30.7791C36.0432 30.4695 35.8344 30.0178 35.5697 29.4253C35.305 28.8328 35.0706 28.2598 34.8672 27.7055C34.7856 27.4733 34.6635 27.2961 34.5007 27.1739L34.4245 27.124C34.3736 27.08 34.292 27.0327 34.18 26.9831C34.0677 26.9332 33.951 26.8973 33.8286 26.8749L29.6439 26.9079C29.2163 26.9079 28.9263 27.0136 28.7736 27.2241L28.7125 27.3236C28.6817 27.3793 28.6665 27.4681 28.6665 27.5896C28.6665 27.7117 28.6972 27.8611 28.7583 28.0379C29.3693 29.6 30.0337 31.1064 30.7513 32.5569C31.4693 34.0082 32.0928 35.1771 32.6222 36.063C33.1517 36.9498 33.6912 37.7854 34.2413 38.572C34.7913 39.3585 35.1552 39.8622 35.3332 40.0834C35.5112 40.3054 35.6512 40.4716 35.7531 40.582L36.1348 40.9811C36.379 41.2468 36.7381 41.5652 37.2116 41.9365C37.6851 42.3077 38.2092 42.6731 38.7848 43.0327C39.3598 43.3929 40.0296 43.686 40.793 43.9135C41.5565 44.1409 42.2997 44.2322 43.0227 44.1875H44.7791C45.1356 44.1545 45.4052 44.0331 45.5885 43.8221L45.6495 43.7392C45.6899 43.6731 45.7284 43.5704 45.7641 43.4321C45.7995 43.2938 45.8178 43.1412 45.8178 42.9754C45.8073 42.4992 45.8407 42.0692 45.9169 41.6877C45.9931 41.3054 46.0797 41.0178 46.1766 40.8234C46.2734 40.63 46.3826 40.4664 46.505 40.3332C46.6271 40.2 46.7134 40.1204 46.7647 40.0925C46.8156 40.0654 46.8565 40.046 46.8868 40.0342C47.1309 39.9457 47.4186 40.0316 47.7498 40.2917C48.0806 40.5526 48.3912 40.8732 48.6815 41.2555C48.9715 41.6378 49.3202 42.0666 49.7276 42.5432C50.1347 43.0193 50.4911 43.3737 50.7966 43.6063L51.1022 43.8063C51.3058 43.9387 51.5702 44.0605 51.8963 44.1717C52.2221 44.2821 52.5074 44.31 52.7515 44.2546L56.6613 44.1878C57.0482 44.1878 57.3486 44.1189 57.5625 43.9802C57.7762 43.8426 57.9035 43.6892 57.9442 43.5234C57.9847 43.3573 57.9874 43.1698 57.952 42.9588C57.9163 42.7486 57.8805 42.6018 57.8452 42.5189C57.8095 42.436 57.7763 42.3663 57.7456 42.3113C57.2364 41.3145 56.2642 40.0903 54.8286 38.6394L54.7979 38.6063L54.7827 38.5895L54.7676 38.5733H54.7522C54.1004 37.8975 53.6883 37.4433 53.5152 37.2104C53.1997 36.768 53.1281 36.3193 53.3015 35.8652C53.4229 35.5208 53.8808 34.7951 54.675 33.6872Z" fill="#E4E4E4"/>
</g>
<path d="M88.2708 37.2686H84.9076L84.8893 35.8558H87.9427C88.447 35.8558 88.8876 35.7707 89.2643 35.6006C89.6411 35.4304 89.9327 35.1874 90.1393 34.8714C90.352 34.5494 90.4583 34.1666 90.4583 33.723C90.4583 33.2369 90.3641 32.8419 90.1758 32.5381C89.9935 32.2282 89.7109 32.0034 89.3281 31.8636C88.9514 31.7178 88.4714 31.6449 87.888 31.6449H85.2995V43.4756H83.5404V30.2048H87.888C88.5686 30.2048 89.1762 30.2746 89.7109 30.4144C90.2457 30.5481 90.6984 30.7607 91.069 31.0524C91.4457 31.338 91.7313 31.7026 91.9258 32.1462C92.1202 32.5897 92.2174 33.1214 92.2174 33.7412C92.2174 34.2881 92.0777 34.7833 91.7982 35.2269C91.5187 35.6644 91.1298 36.0229 90.6315 36.3024C90.1393 36.5819 89.5621 36.7612 88.8997 36.8402L88.2708 37.2686ZM88.1888 43.4756H84.2148L85.2083 42.0446H88.1888C88.7478 42.0446 89.2218 41.9474 89.6107 41.7529C90.0056 41.5585 90.3064 41.285 90.513 40.9326C90.7196 40.5741 90.8229 40.1518 90.8229 39.6657C90.8229 39.1735 90.7348 38.7482 90.5586 38.3896C90.3824 38.0311 90.1059 37.7547 89.7292 37.5602C89.3524 37.3658 88.8663 37.2686 88.2708 37.2686H85.7643L85.7826 35.8558H89.2096L89.5833 36.3662C90.2214 36.4209 90.7622 36.6032 91.2057 36.9131C91.6493 37.2169 91.9865 37.6058 92.2174 38.0798C92.4544 38.5537 92.5729 39.0763 92.5729 39.6475C92.5729 40.4738 92.3906 41.1726 92.026 41.7438C91.6675 42.3089 91.1602 42.7403 90.5039 43.0381C89.8477 43.3298 89.076 43.4756 88.1888 43.4756ZM96.7474 33.6136V43.4756H95.0612V33.6136H96.7474ZM103.219 33.6136L98.543 39.2646H96.1823L95.9271 37.7881H97.8594L101.168 33.6136H103.219ZM101.405 43.4756L97.7773 39.0094L98.862 37.7881L103.547 43.4756H101.405ZM104.367 38.654V38.4443C104.367 37.7334 104.47 37.0741 104.677 36.4665C104.884 35.8528 105.181 35.3211 105.57 34.8714C105.959 34.4157 106.43 34.0633 106.983 33.8141C107.536 33.5589 108.156 33.4313 108.842 33.4313C109.535 33.4313 110.158 33.5589 110.711 33.8141C111.27 34.0633 111.744 34.4157 112.133 34.8714C112.528 35.3211 112.829 35.8528 113.035 36.4665C113.242 37.0741 113.345 37.7334 113.345 38.4443V38.654C113.345 39.3649 113.242 40.0242 113.035 40.6318C112.829 41.2395 112.528 41.7712 112.133 42.2269C111.744 42.6765 111.273 43.029 110.72 43.2842C110.173 43.5333 109.553 43.6579 108.861 43.6579C108.168 43.6579 107.545 43.5333 106.992 43.2842C106.439 43.029 105.965 42.6765 105.57 42.2269C105.181 41.7712 104.884 41.2395 104.677 40.6318C104.47 40.0242 104.367 39.3649 104.367 38.654ZM106.053 38.4443V38.654C106.053 39.1462 106.111 39.611 106.227 40.0485C106.342 40.4799 106.515 40.8627 106.746 41.1969C106.983 41.5311 107.278 41.7955 107.63 41.9899C107.983 42.1783 108.393 42.2725 108.861 42.2725C109.322 42.2725 109.727 42.1783 110.073 41.9899C110.425 41.7955 110.717 41.5311 110.948 41.1969C111.179 40.8627 111.352 40.4799 111.467 40.0485C111.589 39.611 111.65 39.1462 111.65 38.654V38.4443C111.65 37.9582 111.589 37.4995 111.467 37.068C111.352 36.6305 111.176 36.2447 110.939 35.9105C110.708 35.5702 110.416 35.3028 110.064 35.1084C109.717 34.914 109.31 34.8167 108.842 34.8167C108.381 34.8167 107.974 34.914 107.621 35.1084C107.275 35.3028 106.983 35.5702 106.746 35.9105C106.515 36.2447 106.342 36.6305 106.227 37.068C106.111 37.4995 106.053 37.9582 106.053 38.4443ZM122.15 37.8883V39.2555H116.936V37.8883H122.15ZM117.292 33.6136V43.4756H115.605V33.6136H117.292ZM123.517 33.6136V43.4756H121.822V33.6136H123.517ZM130.253 33.6136V43.4756H128.557V33.6136H130.253ZM133.561 33.6136V34.9808H125.313V33.6136H133.561ZM140.889 41.7894V36.7126C140.889 36.3237 140.81 35.9864 140.652 35.7008C140.5 35.4092 140.27 35.1844 139.96 35.0264C139.65 34.8684 139.267 34.7894 138.811 34.7894C138.386 34.7894 138.012 34.8623 137.69 35.0081C137.374 35.154 137.125 35.3454 136.943 35.5824C136.766 35.8193 136.678 36.0745 136.678 36.348H134.992C134.992 35.9956 135.083 35.6462 135.266 35.2998C135.448 34.9534 135.709 34.6405 136.049 34.361C136.396 34.0754 136.809 33.8506 137.289 33.6865C137.775 33.5164 138.316 33.4313 138.911 33.4313C139.628 33.4313 140.26 33.5528 140.807 33.7959C141.36 34.039 141.792 34.4066 142.102 34.8988C142.418 35.3849 142.576 35.9956 142.576 36.7308V41.3245C142.576 41.6527 142.603 42.0021 142.658 42.3727C142.718 42.7434 142.806 43.0624 142.922 43.3298V43.4756H141.163C141.078 43.2811 141.011 43.0229 140.962 42.7008C140.914 42.3727 140.889 42.0689 140.889 41.7894ZM141.181 37.4964L141.199 38.6813H139.495C139.015 38.6813 138.586 38.7208 138.21 38.7998C137.833 38.8727 137.517 38.9851 137.262 39.137C137.007 39.289 136.812 39.4804 136.678 39.7113C136.545 39.9361 136.478 40.2004 136.478 40.5042C136.478 40.8141 136.548 41.0967 136.688 41.3519C136.827 41.6071 137.037 41.8107 137.316 41.9626C137.602 42.1084 137.951 42.1813 138.365 42.1813C138.881 42.1813 139.337 42.0719 139.732 41.8532C140.127 41.6344 140.44 41.3671 140.671 41.0511C140.908 40.7351 141.035 40.4283 141.053 40.1305L141.773 40.9417C141.731 41.1969 141.615 41.4795 141.427 41.7894C141.239 42.0993 140.987 42.397 140.671 42.6826C140.361 42.9621 139.99 43.1961 139.559 43.3844C139.133 43.5667 138.653 43.6579 138.118 43.6579C137.45 43.6579 136.864 43.5272 136.359 43.266C135.861 43.0047 135.472 42.6553 135.193 42.2178C134.919 41.7742 134.783 41.279 134.783 40.7321C134.783 40.2035 134.886 39.7386 135.092 39.3376C135.299 38.9304 135.597 38.5932 135.986 38.3258C136.375 38.0524 136.842 37.8458 137.389 37.7061C137.936 37.5663 138.547 37.4964 139.221 37.4964H141.181ZM147.06 33.6136V43.4756H145.374V33.6136H147.06ZM153.531 33.6136L148.855 39.2646H146.495L146.24 37.7881H148.172L151.48 33.6136H153.531ZM151.717 43.4756L148.09 39.0094L149.174 37.7881L153.859 43.4756H151.717ZM159.346 33.6136V43.4756H157.651V33.6136H159.346ZM162.655 33.6136V34.9808H154.406V33.6136H162.655ZM167.677 43.6579C166.99 43.6579 166.368 43.5424 165.809 43.3115C165.256 43.0745 164.779 42.7434 164.378 42.318C163.983 41.8927 163.679 41.3883 163.466 40.805C163.253 40.2217 163.147 39.5837 163.147 38.891V38.5081C163.147 37.7061 163.266 36.9921 163.503 36.3662C163.74 35.7343 164.062 35.1995 164.469 34.762C164.876 34.3245 165.338 33.9934 165.854 33.7686C166.371 33.5437 166.905 33.4313 167.458 33.4313C168.163 33.4313 168.771 33.5528 169.281 33.7959C169.798 34.039 170.22 34.3792 170.548 34.8167C170.876 35.2482 171.119 35.7586 171.277 36.348C171.435 36.9313 171.514 37.5693 171.514 38.262V39.0186H164.15V37.6423H169.828V37.5146C169.804 37.0771 169.713 36.6518 169.555 36.2386C169.403 35.8254 169.16 35.4851 168.826 35.2178C168.491 34.9504 168.036 34.8167 167.458 34.8167C167.076 34.8167 166.723 34.8988 166.401 35.0628C166.079 35.2208 165.803 35.4578 165.572 35.7738C165.341 36.0897 165.161 36.4756 165.034 36.9313C164.906 37.387 164.842 37.9127 164.842 38.5081V38.891C164.842 39.3588 164.906 39.7994 165.034 40.2126C165.168 40.6197 165.359 40.9782 165.608 41.2881C165.863 41.598 166.17 41.841 166.529 42.0173C166.893 42.1935 167.306 42.2816 167.768 42.2816C168.364 42.2816 168.868 42.16 169.281 41.917C169.694 41.6739 170.056 41.3488 170.366 40.9417L171.387 41.7529C171.174 42.075 170.904 42.3818 170.576 42.6735C170.247 42.9652 169.843 43.2021 169.363 43.3844C168.889 43.5667 168.327 43.6579 167.677 43.6579Z" fill="white"/>
<defs>
<clipPath id="clip0_4515_4869">
<rect width="29.3333" height="31.911" fill="white" transform="translate(28.6665 19.2231)"/>
</clipPath>
</defs>
</svg>
